<svg preserveAspectRatio="none" width="100%" height="100%" overflow="visible" style="display: block;" viewBox="0 0 15.9943 15.9943" fill="none" xmlns="http://www.w3.org/2000/svg">
<g id="Icon" clip-path="url(#clip0_0_8)">
<path id="Vector" d="M13.3286 6.6643C13.3286 9.99178 9.63724 13.4572 8.39768 14.5275C8.28221 14.6143 8.14164 14.6613 7.99716 14.6613C7.85268 14.6613 7.71211 14.6143 7.59663 14.5275C6.35708 13.4572 2.66572 9.99178 2.66572 6.6643C2.66572 5.25031 3.22742 3.89424 4.22726 2.8944C5.2271 1.89456 6.58317 1.33286 7.99716 1.33286C9.41114 1.33286 10.7672 1.89456 11.7671 2.8944C12.7669 3.89424 13.3286 5.25031 13.3286 6.6643Z" stroke="var(--stroke-0, #4A5D8A)" stroke-width="1.33286" stroke-linecap="round" stroke-linejoin="round"/>
<path id="Vector_2" d="M7.99716 8.66359C9.10134 8.66359 9.99645 7.76848 9.99645 6.6643C9.99645 5.56012 9.10134 4.66501 7.99716 4.66501C6.89298 4.66501 5.99787 5.56012 5.99787 6.6643C5.99787 7.76848 6.89298 8.66359 7.99716 8.66359Z" stroke="var(--stroke-0, #4A5D8A)" stroke-width="1.33286" stroke-linecap="round" stroke-linejoin="round"/>
</g>
<defs>
<clipPath id="clip0_0_8">
<rect width="15.9943" height="15.9943" fill="white"/>
</clipPath>
</defs>
</svg>
