<svg preserveAspectRatio="none" width="100%" height="100%" overflow="visible" style="display: block;" viewBox="0 0 15.9943 15.9943" fill="none" xmlns="http://www.w3.org/2000/svg">
<g id="Icon">
<path id="Vector" d="M9.40066 3.70069C9.58566 3.79313 9.78964 3.84126 9.99645 3.84126C10.2033 3.84126 10.4072 3.79313 10.5922 3.70069L13.0307 2.48112C13.1324 2.43031 13.2454 2.40635 13.3589 2.41152C13.4725 2.41669 13.5828 2.45082 13.6794 2.51066C13.7761 2.5705 13.8558 2.65407 13.9111 2.75341C13.9663 2.85275 13.9952 2.96457 13.995 3.07824V11.5846C13.995 11.7083 13.9605 11.8296 13.8954 11.9348C13.8303 12.04 13.7372 12.125 13.6265 12.1803L10.5922 13.6978C10.4072 13.7902 10.2033 13.8384 9.99645 13.8384C9.78964 13.8384 9.58566 13.7902 9.40066 13.6978L6.59366 12.2943C6.40866 12.2019 6.20468 12.1537 5.99787 12.1537C5.79106 12.1537 5.58708 12.2019 5.40208 12.2943L2.96361 13.5139C2.86188 13.5647 2.74884 13.5887 2.63523 13.5835C2.52163 13.5783 2.41125 13.5441 2.31459 13.4841C2.21793 13.4242 2.13821 13.3406 2.08302 13.2411C2.02783 13.1417 1.99901 13.0298 1.99929 12.9161V4.41043C1.99936 4.2867 2.03387 4.16543 2.09896 4.06021C2.16405 3.95498 2.25714 3.86995 2.36783 3.81464L5.40208 2.29718C5.58708 2.20474 5.79106 2.15661 5.99787 2.15661C6.20468 2.15661 6.40866 2.20474 6.59366 2.29718L9.40066 3.70069Z" stroke="var(--stroke-0, white)" stroke-width="1.33286" stroke-linecap="round" stroke-linejoin="round"/>
<path id="Vector_2" d="M9.99645 3.8413V13.8378" stroke="var(--stroke-0, white)" stroke-width="1.33286" stroke-linecap="round" stroke-linejoin="round"/>
<path id="Vector_3" d="M5.99787 2.15657V12.153" stroke="var(--stroke-0, white)" stroke-width="1.33286" stroke-linecap="round" stroke-linejoin="round"/>
</g>
</svg>
