<svg preserveAspectRatio="none" width="100%" height="100%" overflow="visible" style="display: block;" viewBox="0 0 15.9943 15.9943" fill="none" xmlns="http://www.w3.org/2000/svg">
<g id="Icon" clip-path="url(#clip0_0_59)">
<path id="Vector" d="M6.99751 13.6618L13.6618 6.99751C13.9732 6.69234 14.221 6.32845 14.3909 5.92691C14.5608 5.52536 14.6495 5.09412 14.6517 4.65811C14.6539 4.2221 14.5696 3.78998 14.4038 3.38674C14.2379 2.9835 13.9938 2.61713 13.6855 2.30882C13.3772 2.00052 13.0108 1.75639 12.6076 1.59055C12.2043 1.42471 11.7722 1.34046 11.3362 1.34266C10.9002 1.34486 10.469 1.43348 10.0674 1.60338C9.66586 1.77328 9.30198 2.0211 8.9968 2.3325L2.3325 8.9968C2.0211 9.30198 1.77328 9.66586 1.60338 10.0674C1.43348 10.469 1.34486 10.9002 1.34266 11.3362C1.34046 11.7722 1.42471 12.2043 1.59055 12.6076C1.75639 13.0108 2.00052 13.3772 2.30882 13.6855C2.61713 13.9938 2.9835 14.2379 3.38674 14.4038C3.78998 14.5696 4.2221 14.6539 4.65811 14.6517C5.09412 14.6495 5.52536 14.5608 5.92691 14.3909C6.32845 14.221 6.69234 13.9732 6.99751 13.6618Z" stroke="var(--stroke-0, #009688)" stroke-width="1.33286" stroke-linecap="round" stroke-linejoin="round"/>
<path id="Vector_2" d="M5.66465 5.66465L10.3297 10.3297" stroke="var(--stroke-0, #009688)" stroke-width="1.33286" stroke-linecap="round" stroke-linejoin="round"/>
</g>
<defs>
<clipPath id="clip0_0_59">
<rect width="15.9943" height="15.9943" fill="white"/>
</clipPath>
</defs>
</svg>
