<svg preserveAspectRatio="none" width="100%" height="100%" overflow="visible" style="display: block;" viewBox="0 0 17.9972 17.9972" fill="none" xmlns="http://www.w3.org/2000/svg">
<g id="Icon" clip-path="url(#clip0_0_5)">
<path id="Vector" d="M7.69978 15.7475C7.83142 15.9755 8.02075 16.1648 8.24873 16.2964C8.47672 16.428 8.73533 16.4973 8.99858 16.4973C9.26183 16.4973 9.52044 16.428 9.74843 16.2964C9.97641 16.1648 10.1657 15.9755 10.2974 15.7475" stroke="var(--stroke-0, #4A5D8A)" stroke-width="1.49976" stroke-linecap="round" stroke-linejoin="round"/>
<path id="Vector_2" d="M2.44611 11.4927C2.34815 11.6001 2.2835 11.7336 2.26003 11.877C2.23656 12.0204 2.25528 12.1676 2.31391 12.3006C2.37255 12.4336 2.46856 12.5467 2.59028 12.6261C2.712 12.7055 2.85418 12.7479 2.99953 12.748H14.9976C15.143 12.748 15.2852 12.7059 15.407 12.6266C15.5288 12.5473 15.6249 12.4343 15.6837 12.3014C15.7425 12.1685 15.7614 12.0214 15.7381 11.878C15.7148 11.7345 15.6503 11.6009 15.5525 11.4934C14.5552 10.4653 13.4979 9.37277 13.4979 5.99905C13.4979 4.80577 13.0238 3.66136 12.1801 2.81757C11.3363 1.97379 10.1919 1.49976 8.99858 1.49976C7.80529 1.49976 6.66088 1.97379 5.8171 2.81757C4.97332 3.66136 4.49929 4.80577 4.49929 5.99905C4.49929 9.37277 3.44121 10.4653 2.44611 11.4927Z" stroke="var(--stroke-0, #4A5D8A)" stroke-width="1.49976" stroke-linecap="round" stroke-linejoin="round"/>
</g>
<defs>
<clipPath id="clip0_0_5">
<rect width="17.9972" height="17.9972" fill="white"/>
</clipPath>
</defs>
</svg>
