<svg preserveAspectRatio="none" width="100%" height="100%" overflow="visible" style="display: block;" viewBox="0 0 21.9886 21.9886" fill="none" xmlns="http://www.w3.org/2000/svg">
<g id="Icon" clip-path="url(#clip0_0_33)">
<path id="Vector" d="M13.7429 12.8267C13.9261 11.9105 14.3842 11.2692 15.1172 10.5362C16.0334 9.71165 16.4915 8.5206 16.4915 7.32955C16.4915 5.87161 15.9123 4.47338 14.8814 3.44247C13.8505 2.41155 12.4523 1.83239 10.9943 1.83239C9.53638 1.83239 8.13816 2.41155 7.10724 3.44247C6.07632 4.47338 5.49716 5.87161 5.49716 7.32955C5.49716 8.24574 5.6804 9.34517 6.87145 10.5362C7.51278 11.1776 8.0625 11.9105 8.24574 12.8267" stroke="var(--stroke-0, white)" stroke-width="1.83239" stroke-linecap="round" stroke-linejoin="round"/>
<path id="Vector_2" d="M8.24574 16.4915H13.7429" stroke="var(--stroke-0, white)" stroke-width="1.83239" stroke-linecap="round" stroke-linejoin="round"/>
<path id="Vector_3" d="M9.16193 20.1562H12.8267" stroke="var(--stroke-0, white)" stroke-width="1.83239" stroke-linecap="round" stroke-linejoin="round"/>
</g>
<defs>
<clipPath id="clip0_0_33">
<rect width="21.9886" height="21.9886" fill="white"/>
</clipPath>
</defs>
</svg>
